# xmcd
#
# Track frame offsets: 
#        150
#        15672
#        33492
#        48780
#        62382
#        80300
#        91340
#        102957
#        117750
#        134972
#        148010
#        158537
#        178482
#        194037
#
# Disc length: 2865 seconds
#
# Revision: 1
# Processed by: cddbd v1.5.2PL0 Copyright (c) Steve Scherf et al.
# Submitted via: ExactAudioCopy v0.90b4
#
DISCID=be0b2f0e
DTITLE=Adam Brand - Adam Brand
DYEAR=1998
DGENRE=Country
TTITLE0=Uncle Pete
TTITLE1=Never Live Without You
TTITLE2=Grandpa's Piano
TTITLE3=My Mind's Made Up
TTITLE4=Come From The Heart
TTITLE5=Feelin' Single, Seein' Double
TTITLE6=Losing Streak
TTITLE7=Last Man Standing
TTITLE8=Size Two Boots
TTITLE9=Dirt Track Cowboys
TTITLE10=My Mama Told Me (Not To Play The Guitar)
TTITLE11=Here And There
TTITLE12=King Of The Road
TTITLE13=Words Cannot Say
EXTD=YEAR: 1998 ID3G: 2
EXTT0=
EXTT1=
EXTT2=
EXTT3=
EXTT4=
EXTT5=
EXTT6=
EXTT7=
EXTT8=
EXTT9=
EXTT10=
EXTT11=
EXTT12=
EXTT13=
PLAYORDER=
